<mxfile host="app.diagrams.net" agent="Mozilla/5.0 (Windows NT 10.0; Win64; x64) AppleWebKit/537.36 (KHTML, like Gecko) Chrome/130.0.0.0 Safari/537.36 Edg/130.0.0.0" version="24.8.3">
  <diagram name="第 1 页" id="p5vJgC_DluuztyQDDS1-">
    <mxGraphModel dx="2849" dy="689" grid="1" gridSize="10" guides="1" tooltips="1" connect="1" arrows="1" fold="1" page="1" pageScale="1" pageWidth="827" pageHeight="1169" math="1" shadow="0">
      <root>
        <mxCell id="0" />
        <mxCell id="1" parent="0" />
        <mxCell id="xqtxyzyZTzdw0AqHKK97-38" value="" style="rounded=0;whiteSpace=wrap;html=1;fillColor=#dae8fc;strokeColor=#6c8ebf;" vertex="1" parent="1">
          <mxGeometry x="-690" y="348" width="550" height="170" as="geometry" />
        </mxCell>
        <mxCell id="xqtxyzyZTzdw0AqHKK97-31" style="edgeStyle=orthogonalEdgeStyle;rounded=0;orthogonalLoop=1;jettySize=auto;html=1;exitX=0.5;exitY=1;exitDx=0;exitDy=0;entryX=0.5;entryY=0;entryDx=0;entryDy=0;" edge="1" parent="1" source="xqtxyzyZTzdw0AqHKK97-26" target="xqtxyzyZTzdw0AqHKK97-30">
          <mxGeometry relative="1" as="geometry">
            <Array as="points">
              <mxPoint x="-610" y="330" />
              <mxPoint x="-565" y="330" />
            </Array>
          </mxGeometry>
        </mxCell>
        <mxCell id="xqtxyzyZTzdw0AqHKK97-26" value="" style="rounded=0;whiteSpace=wrap;html=1;fillColor=#f8cecc;strokeColor=#b85450;" vertex="1" parent="1">
          <mxGeometry x="-1080" y="220" width="940" height="80" as="geometry" />
        </mxCell>
        <mxCell id="xqtxyzyZTzdw0AqHKK97-27" style="edgeStyle=orthogonalEdgeStyle;rounded=0;orthogonalLoop=1;jettySize=auto;html=1;exitX=1;exitY=0.5;exitDx=0;exitDy=0;entryX=1;entryY=0.5;entryDx=0;entryDy=0;" edge="1" parent="1" source="xqtxyzyZTzdw0AqHKK97-3" target="YQHCH-Y018MBS1Z_LB9k-4">
          <mxGeometry relative="1" as="geometry" />
        </mxCell>
        <mxCell id="xqtxyzyZTzdw0AqHKK97-3" value="" style="rounded=0;whiteSpace=wrap;html=1;fillColor=#ffe6cc;strokeColor=#d79b00;" vertex="1" parent="1">
          <mxGeometry x="-780" y="60" width="630" height="110" as="geometry" />
        </mxCell>
        <mxCell id="xqtxyzyZTzdw0AqHKK97-1" style="edgeStyle=orthogonalEdgeStyle;rounded=0;orthogonalLoop=1;jettySize=auto;html=1;exitX=1;exitY=0.5;exitDx=0;exitDy=0;entryX=0;entryY=0.5;entryDx=0;entryDy=0;" edge="1" parent="1" source="YQHCH-Y018MBS1Z_LB9k-1" target="YQHCH-Y018MBS1Z_LB9k-3">
          <mxGeometry relative="1" as="geometry" />
        </mxCell>
        <mxCell id="YQHCH-Y018MBS1Z_LB9k-1" value="Gernate code and run it to read table" style="rounded=0;whiteSpace=wrap;html=1;fillColor=none;" parent="1" vertex="1">
          <mxGeometry x="-760" y="90" width="120" height="60" as="geometry" />
        </mxCell>
        <mxCell id="xqtxyzyZTzdw0AqHKK97-6" style="edgeStyle=orthogonalEdgeStyle;rounded=0;orthogonalLoop=1;jettySize=auto;html=1;exitX=1;exitY=0.5;exitDx=0;exitDy=0;entryX=0;entryY=0.5;entryDx=0;entryDy=0;" edge="1" parent="1" source="YQHCH-Y018MBS1Z_LB9k-2" target="xqtxyzyZTzdw0AqHKK97-5">
          <mxGeometry relative="1" as="geometry" />
        </mxCell>
        <mxCell id="YQHCH-Y018MBS1Z_LB9k-2" value="Gernate code to know the data structure of the&amp;nbsp;" style="rounded=0;whiteSpace=wrap;html=1;fillColor=none;" parent="1" vertex="1">
          <mxGeometry x="-453" y="90" width="120" height="60" as="geometry" />
        </mxCell>
        <mxCell id="xqtxyzyZTzdw0AqHKK97-2" style="edgeStyle=orthogonalEdgeStyle;rounded=0;orthogonalLoop=1;jettySize=auto;html=1;exitX=1;exitY=0.5;exitDx=0;exitDy=0;entryX=0;entryY=0.5;entryDx=0;entryDy=0;" edge="1" parent="1" source="YQHCH-Y018MBS1Z_LB9k-3" target="YQHCH-Y018MBS1Z_LB9k-2">
          <mxGeometry relative="1" as="geometry" />
        </mxCell>
        <mxCell id="xqtxyzyZTzdw0AqHKK97-4" style="edgeStyle=orthogonalEdgeStyle;rounded=0;orthogonalLoop=1;jettySize=auto;html=1;exitX=0.5;exitY=0;exitDx=0;exitDy=0;entryX=0.5;entryY=0;entryDx=0;entryDy=0;" edge="1" parent="1" source="YQHCH-Y018MBS1Z_LB9k-3" target="YQHCH-Y018MBS1Z_LB9k-1">
          <mxGeometry relative="1" as="geometry">
            <Array as="points">
              <mxPoint x="-540" y="70" />
              <mxPoint x="-700" y="70" />
            </Array>
          </mxGeometry>
        </mxCell>
        <mxCell id="YQHCH-Y018MBS1Z_LB9k-3" value="work/not work" style="rhombus;whiteSpace=wrap;html=1;fillColor=none;" parent="1" vertex="1">
          <mxGeometry x="-580" y="80" width="80" height="80" as="geometry" />
        </mxCell>
        <mxCell id="YQHCH-Y018MBS1Z_LB9k-4" value="Output: Discription of the Table" style="rounded=0;whiteSpace=wrap;html=1;fillColor=none;" parent="1" vertex="1">
          <mxGeometry x="-380" y="230" width="120" height="60" as="geometry" />
        </mxCell>
        <mxCell id="xqtxyzyZTzdw0AqHKK97-7" style="edgeStyle=orthogonalEdgeStyle;rounded=0;orthogonalLoop=1;jettySize=auto;html=1;exitX=0.5;exitY=0;exitDx=0;exitDy=0;entryX=0.5;entryY=0;entryDx=0;entryDy=0;" edge="1" parent="1" source="xqtxyzyZTzdw0AqHKK97-5" target="YQHCH-Y018MBS1Z_LB9k-2">
          <mxGeometry relative="1" as="geometry">
            <Array as="points">
              <mxPoint x="-250" y="70" />
              <mxPoint x="-393" y="70" />
            </Array>
          </mxGeometry>
        </mxCell>
        <mxCell id="xqtxyzyZTzdw0AqHKK97-5" value="work/not work" style="rhombus;whiteSpace=wrap;html=1;fillColor=none;" vertex="1" parent="1">
          <mxGeometry x="-290" y="80" width="80" height="80" as="geometry" />
        </mxCell>
        <mxCell id="xqtxyzyZTzdw0AqHKK97-9" style="edgeStyle=orthogonalEdgeStyle;rounded=0;orthogonalLoop=1;jettySize=auto;html=1;exitX=1;exitY=0.5;exitDx=0;exitDy=0;entryX=0;entryY=0.5;entryDx=0;entryDy=0;" edge="1" parent="1" source="xqtxyzyZTzdw0AqHKK97-8" target="xqtxyzyZTzdw0AqHKK97-3">
          <mxGeometry relative="1" as="geometry" />
        </mxCell>
        <mxCell id="xqtxyzyZTzdw0AqHKK97-8" value="Data Set Input" style="rounded=1;whiteSpace=wrap;html=1;fillColor=#e1d5e7;strokeColor=#9673a6;" vertex="1" parent="1">
          <mxGeometry x="-960" y="85" width="120" height="60" as="geometry" />
        </mxCell>
        <mxCell id="xqtxyzyZTzdw0AqHKK97-12" value="Using Pandas Agent" style="text;html=1;align=center;verticalAlign=middle;whiteSpace=wrap;rounded=0;" vertex="1" parent="1">
          <mxGeometry x="-545" y="30" width="130" height="30" as="geometry" />
        </mxCell>
        <mxCell id="xqtxyzyZTzdw0AqHKK97-13" value="CSV/Excel Files" style="text;html=1;align=center;verticalAlign=middle;whiteSpace=wrap;rounded=0;" vertex="1" parent="1">
          <mxGeometry x="-965" y="55" width="130" height="30" as="geometry" />
        </mxCell>
        <mxCell id="xqtxyzyZTzdw0AqHKK97-19" value="Prompt" style="rounded=0;whiteSpace=wrap;html=1;fillColor=none;" vertex="1" parent="1">
          <mxGeometry x="-860" y="230" width="120" height="60" as="geometry" />
        </mxCell>
        <mxCell id="xqtxyzyZTzdw0AqHKK97-41" style="edgeStyle=orthogonalEdgeStyle;rounded=0;orthogonalLoop=1;jettySize=auto;html=1;exitX=0.5;exitY=0;exitDx=0;exitDy=0;entryX=0.5;entryY=0;entryDx=0;entryDy=0;" edge="1" parent="1" source="xqtxyzyZTzdw0AqHKK97-20" target="xqtxyzyZTzdw0AqHKK97-36">
          <mxGeometry relative="1" as="geometry">
            <Array as="points">
              <mxPoint x="-480" y="180" />
              <mxPoint x="-960" y="180" />
            </Array>
          </mxGeometry>
        </mxCell>
        <mxCell id="xqtxyzyZTzdw0AqHKK97-20" value="User&#39;s Questions" style="rounded=0;whiteSpace=wrap;html=1;fillColor=#e1d5e7;strokeColor=#9673a6;" vertex="1" parent="1">
          <mxGeometry x="-540" y="230" width="120" height="60" as="geometry" />
        </mxCell>
        <mxCell id="xqtxyzyZTzdw0AqHKK97-22" value="`+`" style="text;html=1;align=center;verticalAlign=middle;resizable=0;points=[];autosize=1;strokeColor=none;fillColor=none;" vertex="1" parent="1">
          <mxGeometry x="-580" y="245" width="40" height="30" as="geometry" />
        </mxCell>
        <mxCell id="xqtxyzyZTzdw0AqHKK97-23" value="`+`" style="text;html=1;align=center;verticalAlign=middle;resizable=0;points=[];autosize=1;strokeColor=none;fillColor=none;fontStyle=1" vertex="1" parent="1">
          <mxGeometry x="-420" y="245" width="40" height="30" as="geometry" />
        </mxCell>
        <mxCell id="xqtxyzyZTzdw0AqHKK97-24" value="User&#39;s Discription of the table" style="rounded=0;whiteSpace=wrap;html=1;fillColor=#e1d5e7;strokeColor=#9673a6;" vertex="1" parent="1">
          <mxGeometry x="-700" y="230" width="120" height="60" as="geometry" />
        </mxCell>
        <mxCell id="xqtxyzyZTzdw0AqHKK97-25" value="`+`" style="text;html=1;align=center;verticalAlign=middle;resizable=0;points=[];autosize=1;strokeColor=none;fillColor=none;fontStyle=1" vertex="1" parent="1">
          <mxGeometry x="-740" y="245" width="40" height="30" as="geometry" />
        </mxCell>
        <mxCell id="xqtxyzyZTzdw0AqHKK97-28" value="LLM Input" style="text;html=1;align=center;verticalAlign=middle;whiteSpace=wrap;rounded=0;" vertex="1" parent="1">
          <mxGeometry x="-625" y="190" width="130" height="30" as="geometry" />
        </mxCell>
        <mxCell id="xqtxyzyZTzdw0AqHKK97-33" style="edgeStyle=orthogonalEdgeStyle;rounded=0;orthogonalLoop=1;jettySize=auto;html=1;exitX=1;exitY=0.5;exitDx=0;exitDy=0;entryX=0;entryY=0.5;entryDx=0;entryDy=0;" edge="1" parent="1" source="xqtxyzyZTzdw0AqHKK97-30" target="xqtxyzyZTzdw0AqHKK97-32">
          <mxGeometry relative="1" as="geometry" />
        </mxCell>
        <mxCell id="xqtxyzyZTzdw0AqHKK97-35" style="edgeStyle=orthogonalEdgeStyle;rounded=0;orthogonalLoop=1;jettySize=auto;html=1;exitX=1;exitY=0.5;exitDx=0;exitDy=0;entryX=0;entryY=0.5;entryDx=0;entryDy=0;" edge="1" parent="1" source="xqtxyzyZTzdw0AqHKK97-30" target="xqtxyzyZTzdw0AqHKK97-34">
          <mxGeometry relative="1" as="geometry" />
        </mxCell>
        <mxCell id="xqtxyzyZTzdw0AqHKK97-39" style="edgeStyle=orthogonalEdgeStyle;rounded=0;orthogonalLoop=1;jettySize=auto;html=1;exitX=0;exitY=0.5;exitDx=0;exitDy=0;entryX=0.5;entryY=1;entryDx=0;entryDy=0;" edge="1" parent="1" source="xqtxyzyZTzdw0AqHKK97-30" target="xqtxyzyZTzdw0AqHKK97-36">
          <mxGeometry relative="1" as="geometry" />
        </mxCell>
        <mxCell id="xqtxyzyZTzdw0AqHKK97-30" value="Generate Content" style="rounded=0;whiteSpace=wrap;html=1;fillColor=none;" vertex="1" parent="1">
          <mxGeometry x="-625" y="398" width="120" height="60" as="geometry" />
        </mxCell>
        <mxCell id="xqtxyzyZTzdw0AqHKK97-32" value="Conditions of filter" style="rounded=0;whiteSpace=wrap;html=1;fillColor=none;" vertex="1" parent="1">
          <mxGeometry x="-380" y="358" width="120" height="60" as="geometry" />
        </mxCell>
        <mxCell id="xqtxyzyZTzdw0AqHKK97-34" value="Pandas Code" style="rounded=0;whiteSpace=wrap;html=1;fillColor=none;" vertex="1" parent="1">
          <mxGeometry x="-380" y="448" width="120" height="60" as="geometry" />
        </mxCell>
        <mxCell id="xqtxyzyZTzdw0AqHKK97-36" value="Chat History" style="rounded=0;whiteSpace=wrap;html=1;fillColor=none;" vertex="1" parent="1">
          <mxGeometry x="-1020" y="230" width="120" height="60" as="geometry" />
        </mxCell>
        <mxCell id="xqtxyzyZTzdw0AqHKK97-37" value="`+`" style="text;html=1;align=center;verticalAlign=middle;resizable=0;points=[];autosize=1;strokeColor=none;fillColor=none;fontStyle=1" vertex="1" parent="1">
          <mxGeometry x="-900" y="245" width="40" height="30" as="geometry" />
        </mxCell>
        <mxCell id="xqtxyzyZTzdw0AqHKK97-40" value="LLM Output" style="text;html=1;align=center;verticalAlign=middle;whiteSpace=wrap;rounded=0;" vertex="1" parent="1">
          <mxGeometry x="-478" y="318" width="130" height="30" as="geometry" />
        </mxCell>
      </root>
    </mxGraphModel>
  </diagram>
</mxfile>
